# xmcd
#
# Track frame offsets: 
#        150
#        18180
#        34450
#        49285
#        64963
#        83340
#        104030
#        118955
#        130668
#        146580
#        169663
#        181455
#        205650
#
# Disc length: 2813 seconds
#
# Revision: 4
# Processed by: cddbd v1.5.2PL0 Copyright (c) Steve Scherf et al.
# Submitted via: ExactAudioCopy v0.99pb5
#
DISCID=b90afb0d
DTITLE=Milton Nascimento - Ao Vivo
DYEAR=1988
DGENRE=MPB
TTITLE0=Coração de estudante
TTITLE1=A noite do meu bem
TTITLE2=Paisagem na janela
TTITLE3=Cuitelinho
TTITLE4=Caxangá
TTITLE5=Nos bailes da vida
TTITLE6=Menestrel das Alagoas
TTITLE7=Brasil
TTITLE8=Canção do novo mundo
TTITLE9=Um gosto de sol-participação Gal Costa
TTITLE10=Solar-participação Gal Costa
TTITLE11=Para Lennon e McCartney
TTITLE12=Maria, Maria (Orquestrado)
EXTD=
EXTT0=Milton Nascimento e Wagner Tiso
EXTT1=Dolores Duran
EXTT2=Lô Borges e Fernando Brant
EXTT3=folclore adaptado por Milton Nascimento, Wagner Tiso e Paulo Van
EXTT3=zolini
EXTT4=Milton Nascimento e Fernando Brant
EXTT5=Milton Nascimento e Fernando Brant
EXTT6=Milton Nascimento e Fernando Brant
EXTT7=Milton Nascimento e Fernando Brant
EXTT8=Beto Guedes e Ronaldo Bastos
EXTT9=Milton Nascimento e Ronaldo Bastos
EXTT10=Milton Nascimento e Fernando Brant
EXTT11=
EXTT12=Milton Nascimento e Fernando Brant
PLAYORDER=
